<svg width="22" height="22" viewBox="0 0 22 22" fill="none" xmlns="http://www.w3.org/2000/svg">
<path d="M11 0.5C9.62112 0.5 8.25574 0.771591 6.98182 1.29926C5.70791 1.82694 4.55039 2.60036 3.57538 3.57538C2.60036 4.55039 1.82694 5.70791 1.29926 6.98182C0.77159 8.25574 0.5 9.62112 0.5 11C0.5 12.3789 0.771591 13.7443 1.29927 15.0182C1.82694 16.2921 2.60036 17.4496 3.57538 18.4246C4.55039 19.3996 5.70791 20.1731 6.98182 20.7007C8.25574 21.2284 9.62112 21.5 11 21.5L11 11V0.5Z" fill="#FA58B6"/>
<path d="M0.5 11C0.5 12.3789 0.77159 13.7443 1.29926 15.0182C1.82694 16.2921 2.60036 17.4496 3.57538 18.4246C4.55039 19.3996 5.70791 20.1731 6.98182 20.7007C8.25574 21.2284 9.62112 21.5 11 21.5C12.3789 21.5 13.7443 21.2284 15.0182 20.7007C16.2921 20.1731 17.4496 19.3996 18.4246 18.4246C19.3996 17.4496 20.1731 16.2921 20.7007 15.0182C21.2284 13.7443 21.5 12.3789 21.5 11L11 11L0.5 11Z" fill="#FA58B6"/>
<path fill-rule="evenodd" clip-rule="evenodd" d="M10.5 11.5H0.5C0.500512 12.8119 0.759155 14.1109 1.2612 15.3229C1.76375 16.5362 2.50035 17.6386 3.42893 18.5672C4.35752 19.4957 5.45991 20.2323 6.67317 20.7349C7.88642 21.2374 9.18678 21.4961 10.5 21.4961L10.5 11.5Z" fill="#F51F82"/>
<path d="M12.5 5C14.4953 5 17 2.49528 17 0.5C17 2.49528 19.5047 5 21.5 5C19.5047 5 17 7.50472 17 9.5C17 7.49057 14.4953 5 12.5 5Z" fill="#FA58B6"/>
</svg>
