<svg width="96" height="96" viewBox="0 0 96 96" fill="none" xmlns="http://www.w3.org/2000/svg">
<circle cx="48" cy="48" r="48" fill="#F7F7F7"/>
<path d="M48 18.6875C44.1506 18.6875 40.3389 19.4457 36.7826 20.9188C33.2262 22.3919 29.9948 24.551 27.2729 27.2729C24.551 29.9949 22.3919 33.2262 20.9188 36.7826C19.4457 40.3389 18.6875 44.1506 18.6875 48C18.6875 51.8494 19.4457 55.6611 20.9188 59.2174C22.3919 62.7738 24.551 66.0051 27.2729 68.7271C29.9949 71.449 33.2262 73.6081 36.7826 75.0812C40.339 76.5543 44.1506 77.3125 48 77.3125L48 48V18.6875Z" fill="#CCCCCC"/>
<path d="M18.6875 48C18.6875 51.8494 19.4457 55.6611 20.9188 59.2174C22.3919 62.7738 24.551 66.0052 27.2729 68.7271C29.9948 71.449 33.2262 73.6081 36.7826 75.0812C40.3389 76.5543 44.1506 77.3125 48 77.3125C51.8494 77.3125 55.6611 76.5543 59.2174 75.0812C62.7738 73.6081 66.0051 71.449 68.7271 68.7271C71.449 66.0051 73.6081 62.7738 75.0812 59.2174C76.5543 55.661 77.3125 51.8494 77.3125 48L48 48L18.6875 48Z" fill="#CCCCCC"/>
<path fill-rule="evenodd" clip-rule="evenodd" d="M48.0031 47.998L18.6875 47.998C18.6889 51.8441 19.4472 55.6524 20.919 59.2057C22.3923 62.7625 24.5516 65.9942 27.2739 68.7164C29.9961 71.4386 33.2278 73.598 36.7845 75.0712C40.3413 76.5445 44.1534 77.3028 48.0031 77.3028L48.0031 47.998Z" fill="#AAAAAA"/>
<path d="M52.1875 31.25C57.7577 31.25 64.75 24.2577 64.75 18.6875C64.75 24.2577 71.7423 31.25 77.3125 31.25C71.7423 31.25 64.75 38.2423 64.75 43.8125C64.75 38.2028 57.7577 31.25 52.1875 31.25Z" fill="#CCCCCC"/>
</svg>
