<svg width="96" height="97" viewBox="0 0 96 97" fill="none" xmlns="http://www.w3.org/2000/svg">
<circle cx="48" cy="48.7188" r="48" fill="#F7F7F7"/>
<path d="M59.3462 60.0801L68.984 69.7179" stroke="#CCCCCC" stroke-width="4"/>
<path d="M27.0161 46.6324C27.0161 61.1703 42.7538 70.2564 55.344 62.9876C61.1873 59.6139 64.7867 53.3793 64.7867 46.6324C64.7867 32.0943 49.049 23.0082 36.4588 30.277C30.6155 33.6507 27.0161 39.8853 27.0161 46.6324Z" stroke="#CCCCCC" stroke-width="4" stroke-linejoin="round"/>
<path d="M37.1421 46.6333C41.0913 46.6333 45.9022 41.6953 45.9022 37.7461C45.9022 41.6953 50.8368 46.6333 54.7877 46.6333C50.8384 46.6333 45.9007 51.5677 45.9007 55.5187C45.9007 51.5694 40.9661 46.6316 37.0151 46.6316L37.1421 46.6333Z" stroke="#CCCCCC" stroke-width="4"/>
</svg>
