<svg width="25" height="25" viewBox="0 0 25 25" fill="none" xmlns="http://www.w3.org/2000/svg">
<path d="M10.5 19.0008H2.5V16.2008C4.951 14.8359 7.69558 14.0835 10.5 14.0078" fill="#270082"/>
<path d="M7 6.75C7 7.87717 7.44777 8.95817 8.2448 9.7552C9.04183 10.5522 10.1228 11 11.25 11C12.3772 11 13.4582 10.5522 14.2552 9.7552C15.0522 8.95817 15.5 7.87717 15.5 6.75C15.5 5.62283 15.0522 4.54183 14.2552 3.7448C13.4582 2.94777 12.3772 2.5 11.25 2.5C10.1228 2.5 9.04183 2.94777 8.2448 3.7448C7.44777 4.54183 7 5.62283 7 6.75Z" fill="#270082"/>
<path d="M19.3115 10.25H16.5674V11.5544C15.9931 11.7419 15.4641 12.0451 15.0136 12.4448L13.8721 11.7921L12.5 14.1473L13.6405 14.8001C13.5174 15.3867 13.5174 15.9922 13.6405 16.5788L12.5006 17.2316L13.8726 19.5868L15.0136 18.9341C15.464 19.3338 15.9927 19.637 16.5668 19.8245V21.1289H19.311V19.8245C19.8855 19.6371 20.4147 19.334 20.8653 18.9341L22.0068 19.5868L23.3789 17.2316L22.2384 16.5788C22.3614 15.9922 22.3614 15.3867 22.2384 14.8001L23.3784 14.1473L22.0063 11.7921L20.8653 12.4448C20.4148 12.0451 19.8858 11.7419 19.3115 11.5544V10.25Z" fill="#270082"/>
<path d="M16.293 15.689C16.293 16.9452 17.665 17.7303 18.7627 17.1022C19.2721 16.8107 19.586 16.272 19.586 15.689C19.586 14.4328 18.2139 13.6476 17.1162 14.2757C16.6068 14.5673 16.293 15.106 16.293 15.689Z" fill="white"/>
</svg>
