<svg width="40" height="40" viewBox="0 0 40 40" fill="none" xmlns="http://www.w3.org/2000/svg">
<path d="M29.4809 9.60156V34.5857H10.519V9.60156H29.4809Z" fill="#DDDDDD" stroke="black" stroke-width="2"/>
<path d="M14.1655 23.9062H25.8345" stroke="black" stroke-width="2"/>
<path d="M14.1655 18.5938H25.8345" stroke="black" stroke-width="2"/>
<path d="M20 28.75V34.5844" stroke="black" stroke-width="2"/>
<circle cx="20" cy="9.5" r="5.5" fill="black"/>
<path d="M23.7165 9.50178C23.7165 11.5546 22.0526 13.2184 19.9998 13.2184C17.947 13.2184 16.2832 11.5546 16.2832 9.50178C16.2832 7.44898 17.947 5.78516 19.9998 5.78516C22.0516 5.78516 23.7165 7.44898 23.7165 9.50178Z" fill="white"/>
<path d="M21.7449 9.23085C21.154 8.829 20.3969 8.99232 19.999 9.59707C19.6684 10.1019 19.1666 10.1652 18.9736 10.1652C18.3401 10.1652 17.9086 9.71981 17.7799 9.26055C17.7779 9.2556 17.7779 9.25164 17.7759 9.24768C17.7749 9.24273 17.7739 9.23778 17.772 9.23184C17.7215 9.03983 17.7086 8.94778 17.7086 8.74388C17.7086 7.64424 18.838 6.41889 20.4632 6.41889C22.128 6.41889 23.0811 7.68581 23.3266 8.39053C23.3217 8.37766 23.3177 8.36579 23.3137 8.35292C22.8426 6.97515 21.5361 5.98438 19.998 5.98438C18.063 5.98438 16.4932 7.55318 16.4932 9.48919C16.4932 11.2203 17.7413 12.702 19.4734 12.702C20.8541 12.702 21.7816 11.928 22.2072 10.861C22.4408 10.2771 22.2755 9.59113 21.7449 9.23085Z" fill="#003763"/>
<path d="M23.3488 8.45791C23.1439 7.771 22.1848 6.41797 20.4635 6.41797C18.8383 6.41797 17.709 7.64332 17.709 8.74296C17.709 8.94686 17.7219 9.03792 17.7723 9.23092C17.7515 9.14679 17.7407 9.06266 17.7407 8.98051C17.7407 7.83434 18.8878 7.04153 20.0666 7.04153C21.6632 7.04153 22.9568 8.33517 22.9568 9.93169C22.9568 11.1828 22.2362 12.2666 21.191 12.7862V12.7872C22.5391 12.2992 23.5022 11.0066 23.5022 9.49025C23.5032 9.13096 23.4547 8.81423 23.3488 8.45791Z" fill="#E4022D"/>
</svg>
