<svg width="320" height="56" viewBox="0 0 320 56" fill="none" xmlns="http://www.w3.org/2000/svg">
<rect width="320" height="56" rx="8" fill="#FEE501"/>
<path d="M125.218 22.076C125.218 23.792 125.008 25.352 124.588 26.756C124.18 28.148 123.448 29.45 122.392 30.662C121.336 31.874 119.884 32.948 118.036 33.884L117.082 32.534C118.462 31.85 119.59 31.088 120.466 30.248C121.354 29.408 122.038 28.478 122.518 27.458L117.424 27.962L117.19 26.414L123.04 26.036C123.244 25.328 123.388 24.482 123.472 23.498H118V22.076H125.218ZM127.558 20.456H129.34V26.792H131.77V28.25H129.34V36.404H127.558V20.456ZM140.951 22.076C140.951 23.792 140.741 25.352 140.321 26.756C139.913 28.148 139.181 29.45 138.125 30.662C137.069 31.874 135.617 32.948 133.769 33.884L132.815 32.534C134.195 31.85 135.323 31.088 136.199 30.248C137.087 29.408 137.771 28.478 138.251 27.458L133.157 27.962L132.923 26.414L138.773 26.036C138.977 25.328 139.121 24.482 139.205 23.498H133.733V22.076H140.951ZM143.291 20.456H145.073V26.792H147.503V28.25H145.073V36.404H143.291V20.456ZM155.675 21.41C156.803 21.41 157.805 21.59 158.681 21.95C159.569 22.298 160.265 22.796 160.769 23.444C161.273 24.092 161.525 24.836 161.525 25.676C161.525 26.444 161.315 27.134 160.895 27.746C160.475 28.346 159.887 28.832 159.131 29.204C158.375 29.576 157.511 29.804 156.539 29.888V32.984H162.911V34.424H148.475V32.984H154.793V29.888C153.821 29.792 152.957 29.564 152.201 29.204C151.457 28.832 150.875 28.346 150.455 27.746C150.035 27.134 149.825 26.444 149.825 25.676C149.825 24.836 150.077 24.092 150.581 23.444C151.085 22.796 151.775 22.298 152.651 21.95C153.539 21.59 154.547 21.41 155.675 21.41ZM151.553 25.676C151.553 26.24 151.727 26.738 152.075 27.17C152.423 27.602 152.909 27.938 153.533 28.178C154.157 28.406 154.871 28.52 155.675 28.52C156.467 28.52 157.175 28.406 157.799 28.178C158.423 27.938 158.909 27.602 159.257 27.17C159.617 26.738 159.797 26.24 159.797 25.676C159.797 25.1 159.617 24.596 159.257 24.164C158.909 23.732 158.423 23.402 157.799 23.174C157.175 22.934 156.467 22.814 155.675 22.814C154.871 22.814 154.157 22.934 153.533 23.174C152.909 23.402 152.423 23.732 152.075 24.164C151.727 24.596 151.553 25.1 151.553 25.676ZM170.526 33.056V30.302H165.954V25.19H175.17V22.994H165.918V21.59H176.916V26.594H167.7V28.88H177.276V30.302H172.272V33.056H178.644V34.496H164.208V33.056H170.526ZM190.406 33.056V30.302H185.834V25.19H195.05V22.994H185.798V21.59H196.796V26.594H187.58V28.88H197.156V30.302H192.152V33.056H198.524V34.496H184.088V33.056H190.406ZM212.349 22.058V23.768C212.349 25.196 212.313 26.468 212.241 27.584C212.181 28.7 212.025 30.002 211.773 31.49L209.991 31.328C210.267 29.924 210.435 28.67 210.495 27.566C210.567 26.45 210.603 25.184 210.603 23.768V23.48H201.351V22.058H212.349ZM199.821 32.714H214.221V34.172H199.821V32.714ZM228.675 20.492V32.03H226.893V20.492H228.675ZM215.859 25.532C215.859 24.764 216.045 24.08 216.417 23.48C216.789 22.868 217.293 22.394 217.929 22.058C218.565 21.722 219.279 21.554 220.071 21.554C220.863 21.554 221.577 21.722 222.213 22.058C222.861 22.394 223.365 22.868 223.725 23.48C224.097 24.08 224.283 24.764 224.283 25.532C224.283 26.276 224.097 26.954 223.725 27.566C223.365 28.166 222.861 28.64 222.213 28.988C221.577 29.324 220.863 29.492 220.071 29.492C219.291 29.492 218.577 29.324 217.929 28.988C217.293 28.64 216.789 28.166 216.417 27.566C216.045 26.954 215.859 26.276 215.859 25.532ZM217.569 25.532C217.569 26.24 217.809 26.822 218.289 27.278C218.769 27.722 219.363 27.944 220.071 27.944C220.791 27.944 221.385 27.722 221.853 27.278C222.333 26.822 222.573 26.24 222.573 25.532C222.573 24.8 222.333 24.212 221.853 23.768C221.385 23.312 220.791 23.084 220.071 23.084C219.351 23.084 218.751 23.312 218.271 23.768C217.803 24.212 217.569 24.8 217.569 25.532ZM218.307 30.878H220.053V34.64H229.125V36.08H218.307V30.878Z" fill="black"/>
<path d="M100 33.4444C104.418 33.4444 108 30.6587 108 27.2222C108 23.7858 104.418 21 100 21C95.5817 21 92 23.7858 92 27.2222C92 29.3765 93.4076 31.2751 95.5465 32.392L95.1111 35.2222L97.4462 33.1207C98.2482 33.3306 99.107 33.4444 100 33.4444Z" fill="black"/>
</svg>
