<svg width="84" height="32" viewBox="0 0 84 32" fill="none" xmlns="http://www.w3.org/2000/svg">
<path d="M12 6.5C10.6211 6.5 9.25574 6.77159 7.98182 7.29926C6.70791 7.82694 5.55039 8.60036 4.57538 9.57538C3.60036 10.5504 2.82694 11.7079 2.29926 12.9818C1.77159 14.2557 1.5 15.6211 1.5 17C1.5 18.3789 1.77159 19.7443 2.29927 21.0182C2.82694 22.2921 3.60036 23.4496 4.57538 24.4246C5.55039 25.3996 6.70791 26.1731 7.98182 26.7007C9.25574 27.2284 10.6211 27.5 12 27.5L12 17V6.5Z" fill="#FA58B6"/>
<path d="M1.5 17C1.5 18.3789 1.77159 19.7443 2.29926 21.0182C2.82694 22.2921 3.60036 23.4496 4.57538 24.4246C5.55039 25.3996 6.70791 26.1731 7.98182 26.7007C9.25574 27.2284 10.6211 27.5 12 27.5C13.3789 27.5 14.7443 27.2284 16.0182 26.7007C17.2921 26.1731 18.4496 25.3996 19.4246 24.4246C20.3996 23.4496 21.1731 22.2921 21.7007 21.0182C22.2284 19.7443 22.5 18.3789 22.5 17L12 17L1.5 17Z" fill="#FA58B6"/>
<path fill-rule="evenodd" clip-rule="evenodd" d="M11.5 17.5H1.5C1.50051 18.8119 1.75916 20.1109 2.2612 21.3229C2.76375 22.5362 3.50035 23.6386 4.42893 24.5672C5.35752 25.4957 6.45991 26.2323 7.67317 26.7349C8.88642 27.2374 10.1868 27.4961 11.5 27.4961L11.5 17.5Z" fill="#F51F82"/>
<path d="M13.5 11C15.4953 11 18 8.49528 18 6.5C18 8.49528 20.5047 11 22.5 11C20.5047 11 18 13.5047 18 15.5C18 13.4906 15.4953 11 13.5 11Z" fill="#FA58B6"/>
<path d="M46.888 16.44C46.888 18.072 46.536 19.48 45.832 20.664C45.144 21.848 44.176 22.76 42.928 23.4C41.68 24.024 40.232 24.352 38.584 24.384C36.888 24.384 35.368 24 34.024 23.232C32.696 22.464 31.656 21.392 30.904 20.016C30.152 18.64 29.776 17.08 29.776 15.336C29.776 13.592 30.152 12.04 30.904 10.68C31.656 9.304 32.696 8.232 34.024 7.464C35.368 6.696 36.888 6.312 38.584 6.312C40.392 6.312 41.936 6.728 43.216 7.56C44.496 8.392 45.448 9.4 46.072 10.584L43.888 11.712C43.44 10.832 42.76 10.088 41.848 9.48C40.952 8.856 39.864 8.544 38.584 8.544C37.352 8.544 36.256 8.832 35.296 9.408C34.352 9.968 33.616 10.76 33.088 11.784C32.576 12.808 32.32 13.992 32.32 15.336C32.32 16.68 32.576 17.872 33.088 18.912C33.616 19.936 34.352 20.736 35.296 21.312C36.256 21.872 37.352 22.152 38.584 22.152C40.296 22.104 41.688 21.656 42.76 20.808C43.832 19.944 44.376 18.68 44.392 17.016H38.872V14.904H46.912L46.888 16.44ZM52.2837 7.056V24.192H49.7397V7.056H52.2837ZM58.3396 12.744V24.192H55.7956V12.744H58.3396ZM55.6276 8.472C55.6276 8.056 55.7636 7.712 56.0356 7.44C56.3076 7.168 56.6516 7.032 57.0676 7.032C57.4836 7.032 57.8276 7.168 58.0996 7.44C58.3716 7.712 58.5076 8.056 58.5076 8.472C58.5076 8.888 58.3716 9.232 58.0996 9.504C57.8276 9.776 57.4836 9.912 57.0676 9.912C56.6516 9.912 56.3076 9.776 56.0356 9.504C55.7636 9.232 55.6276 8.888 55.6276 8.472ZM69.6848 17.904C69.6848 16.992 69.4608 16.28 69.0128 15.768C68.5648 15.24 67.9488 14.976 67.1648 14.976C66.3808 14.992 65.7248 15.28 65.1968 15.84C64.6688 16.384 64.4128 17.072 64.4288 17.904V24.216H61.8848V12.768H64.4288V14.328C64.7968 13.88 65.2608 13.512 65.8208 13.224C66.3808 12.936 66.9328 12.792 67.4768 12.792C68.2608 12.792 69.0128 12.968 69.7328 13.32C70.4528 13.672 71.0448 14.224 71.5088 14.976C71.9888 15.728 72.2288 16.672 72.2288 17.808V24.216H69.6848V17.904ZM76.4264 14.952H74.2664V12.744H76.4264V8.736H78.9704V12.744H81.6824V14.952H78.9704V24.216H76.4264V14.952Z" fill="black"/>
</svg>
