<svg width="24" height="25" viewBox="0 0 24 25" fill="none" xmlns="http://www.w3.org/2000/svg">
<path d="M20 17C20 17.663 19.7366 18.2989 19.2678 18.7678C18.7989 19.2366 18.163 19.5 17.5 19.5C16.837 19.5 16.2011 19.2366 15.7322 18.7678C15.2634 18.2989 15 17.663 15 17C15 16.337 15.2634 15.7011 15.7322 15.2322C16.2011 14.7634 16.837 14.5 17.5 14.5C18.163 14.5 18.7989 14.7634 19.2678 15.2322C19.7366 15.7011 20 16.337 20 17Z" fill="#CCCCCC" stroke="#CCCCCC" stroke-width="2"/>
<path d="M13.5 23.5V22C13.5 22 15 21 17.5 21C20 21 21.5 22 21.5 22V23.5" fill="#CCCCCC"/>
<path d="M13.5 23.5V22C13.5 22 15 21 17.5 21C20 21 21.5 22 21.5 22V23.5" stroke="#CCCCCC" stroke-width="2"/>
<path d="M10.5 20.5H5V15" stroke="#CCCCCC" stroke-width="2"/>
<path d="M19 10V4.5H13.5" stroke="#CCCCCC" stroke-width="2"/>
<path d="M9 5C9 5.66304 8.73661 6.29893 8.26777 6.76777C7.79893 7.23661 7.16304 7.5 6.5 7.5C5.83696 7.5 5.20107 7.23661 4.73223 6.76777C4.26339 6.29893 4 5.66304 4 5C4 4.33696 4.26339 3.70107 4.73223 3.23223C5.20107 2.76339 5.83696 2.5 6.5 2.5C7.16304 2.5 7.79893 2.76339 8.26777 3.23223C8.73661 3.70107 9 4.33696 9 5Z" fill="#CCCCCC" stroke="#CCCCCC" stroke-width="2"/>
<path d="M2.5 11.5V10C2.5 10 4 9 6.5 9C9 9 10.5 10 10.5 10V11.5" fill="#CCCCCC"/>
<path d="M2.5 11.5V10C2.5 10 4 9 6.5 9C9 9 10.5 10 10.5 10V11.5" stroke="#CCCCCC" stroke-width="2"/>
</svg>
