<svg width="25" height="25" viewBox="0 0 25 25" fill="none" xmlns="http://www.w3.org/2000/svg">
<path d="M10.5 19.0008H2.5V16.2008C4.951 14.8359 7.69558 14.0835 10.5 14.0078" fill="#270082"/>
<path d="M7 6.75C7 7.87717 7.44777 8.95817 8.2448 9.7552C9.04183 10.5522 10.1228 11 11.25 11C12.3772 11 13.4582 10.5522 14.2552 9.7552C15.0522 8.95817 15.5 7.87717 15.5 6.75C15.5 5.62283 15.0522 4.54183 14.2552 3.7448C13.4582 2.94777 12.3772 2.5 11.25 2.5C10.1228 2.5 9.04183 2.94777 8.2448 3.7448C7.44777 4.54183 7 5.62283 7 6.75Z" fill="#270082"/>
<path fill-rule="evenodd" clip-rule="evenodd" d="M15.4769 19.588H15.6565L15.7835 19.461L21.2284 14.016L18.072 10.8596L12.627 16.3046L12.5 16.4316V16.6111L12.5 19.1545V19.588H12.9335H15.4769ZM23.3557 11.8888L21.8415 13.4029L18.6851 10.2465L20.1992 8.73233L20.5058 8.42578L20.8124 8.73233L23.3557 11.2757L23.6622 11.5822L23.3557 11.8888Z" fill="#270082"/>
</svg>
