<svg width="33" height="32" viewBox="0 0 33 32" fill="none" xmlns="http://www.w3.org/2000/svg">
<circle cx="16.5" cy="16" r="15.25" fill="#FA58B6" stroke="white" stroke-width="1.5"/>
<g clip-path="url(#clip0_623_14508)">
<path d="M9.5 21.5V12.5556H12.4403L14.0739 10H19.3011L20.9347 12.5556H23.875V21.5H9.5Z" stroke="white" stroke-width="1.5"/>
<path d="M14.292 16.1888C14.292 16.5034 14.354 16.815 14.4744 17.1056C14.5948 17.3963 14.7712 17.6604 14.9937 17.8829C15.2162 18.1054 15.4803 18.2819 15.771 18.4023C16.0617 18.5227 16.3732 18.5846 16.6878 18.5846C17.0025 18.5846 17.314 18.5227 17.6047 18.4023C17.8953 18.2819 18.1595 18.1054 18.3819 17.8829C18.6044 17.6604 18.7809 17.3963 18.9013 17.1056C19.0217 16.815 19.0837 16.5034 19.0837 16.1888C19.0837 15.8742 19.0217 15.5626 18.9013 15.272C18.7809 14.9813 18.6044 14.7172 18.3819 14.4947C18.1595 14.2722 17.8953 14.0957 17.6047 13.9753C17.314 13.8549 17.0025 13.793 16.6878 13.793C16.3732 13.793 16.0617 13.8549 15.771 13.9753C15.4803 14.0957 15.2162 14.2722 14.9937 14.4947C14.7712 14.7172 14.5948 14.9813 14.4744 15.272C14.354 15.5626 14.292 15.8742 14.292 16.1888Z" stroke="white" stroke-width="1.5"/>
</g>
<defs>
<clipPath id="clip0_623_14508">
<rect width="16" height="16" fill="white" transform="translate(8.5 8)"/>
</clipPath>
</defs>
</svg>
