<svg width="40" height="40" viewBox="0 0 40 40" fill="none" xmlns="http://www.w3.org/2000/svg">
<path d="M19.5001 21.7766V31.4348C18.9986 31.004 18.3464 30.7438 17.6333 30.7438H9.84961V17.543H15.2665C17.6047 17.543 19.5001 19.4384 19.5001 21.7766Z" fill="#DDDDDD" stroke="black"/>
<path d="M23.5501 29.5604C22.3336 29.5604 21.2424 30.0967 20.5 30.9458V21.7766C20.5 19.4384 22.3955 17.543 24.7336 17.543H30.1505V29.5604H23.5501Z" fill="#CFE5DD" stroke="black"/>
<path d="M13.1066 6.89062H27.7836V10.6242H13.1066L11.2398 8.75743L13.1066 6.89062Z" fill="white" stroke="black"/>
<path d="M9.34961 30.0604V17.043H15.2665C17.8808 17.043 20.0001 19.1623 20.0001 21.7766V33.6106C20.0001 31.6498 18.4107 30.0604 16.45 30.0604H9.34961Z" fill="#CFE5DD" stroke="black" stroke-width="2"/>
<path d="M30.6505 30.0604H23.5501C21.5895 30.0604 20 31.6498 20 33.6106V21.7766C20 19.1623 22.1193 17.043 24.7336 17.043H30.6505V30.0604Z" stroke="black" stroke-width="2"/>
<path d="M28.2836 11.1242V6.39062H12.8995L10.5327 8.75743L12.8995 11.1242H28.2836Z" stroke="black" stroke-width="2"/>
</svg>
