<svg width="24" height="24" viewBox="0 0 24 24" fill="none" xmlns="http://www.w3.org/2000/svg">
<path d="M17.2202 17.2344L21.4593 21.4735" stroke="#CCCCCC" stroke-width="2"/>
<path d="M3 11.3191C3 17.7135 9.92216 21.71 15.4599 18.5128C18.03 17.0289 19.6132 14.2867 19.6132 11.3191C19.6132 4.92456 12.6911 0.928073 7.15333 4.12525C4.58319 5.60913 3 8.35139 3 11.3191Z" fill="#CCCCCC" stroke="#CCCCCC" stroke-width="2" stroke-linejoin="round"/>
<path d="M6.47337 11.9037C8.65246 11.9037 11.3069 9.17909 11.3069 7C11.3069 9.17909 14.0297 11.9037 16.2097 11.9037C14.0306 11.9037 11.3061 14.6264 11.3061 16.8064C11.3061 14.6273 8.58334 11.9028 6.40332 11.9028L6.47337 11.9037Z" fill="white"/>
</svg>
