<svg width="40" height="40" viewBox="0 0 40 40" fill="none" xmlns="http://www.w3.org/2000/svg">
<path d="M9.06055 20.5439C9.05575 23.4913 12.2435 25.3386 14.7985 23.869C15.988 23.1848 16.7205 21.9162 16.7182 20.5439C16.723 17.5964 13.5353 15.7491 10.9803 17.2187C9.79075 17.903 9.05835 19.1715 9.06055 20.5439Z" stroke="black" stroke-width="2"/>
<path d="M23.2813 13.9814C23.2765 16.9288 26.4642 18.7761 29.0192 17.3065C30.2087 16.6223 30.9411 15.3537 30.9389 13.9814C30.9437 11.0339 27.756 9.18663 25.201 10.6562C24.0114 11.3405 23.279 12.609 23.2813 13.9814Z" stroke="black" stroke-width="2"/>
<path d="M23.2813 26.0165C23.2765 28.964 26.4642 30.8113 29.0192 29.3417C30.2087 28.6575 30.9411 27.3889 30.9389 26.0165C30.9437 23.0691 27.756 21.2218 25.201 22.6914C24.0114 23.3756 23.279 24.6442 23.2813 26.0165Z" stroke="black" stroke-width="2"/>
<path d="M16.4648 21.9219L23.5362 24.6414" stroke="black" stroke-width="2"/>
<path d="M16.3672 18.9399L23.6332 15.5859" stroke="black" stroke-width="2"/>
</svg>
