<svg width="40" height="40" viewBox="0 0 40 40" fill="none" xmlns="http://www.w3.org/2000/svg">
<g clip-path="url(#clip0_731_9281)">
<path d="M9.9167 24.0335C9.78827 23.7235 9.72217 23.3912 9.72217 23.0556C9.72217 22.72 9.78827 22.3876 9.9167 22.0776C10.0451 21.7675 10.2334 21.4858 10.4707 21.2485C10.708 21.0112 10.9897 20.823 11.2998 20.6945C11.6098 20.5661 11.9421 20.5 12.2777 20.5C12.6133 20.5 12.9456 20.5661 13.2557 20.6945L13.447 20.2326L13.2557 20.6945C13.5657 20.823 13.8475 21.0112 14.0848 21.2485C14.3221 21.4858 14.5103 21.7675 14.6387 22.0776C14.7672 22.3876 14.8333 22.72 14.8333 23.0556C14.8333 23.3912 14.7672 23.7235 14.6387 24.0335C14.5103 24.3436 14.3221 24.6253 14.0848 24.8626C13.8475 25.0999 13.5657 25.2882 13.2557 25.4166C12.9456 25.545 12.6133 25.6111 12.2777 25.6111C11.9421 25.6111 11.6098 25.545 11.2998 25.4166C10.9897 25.2882 10.708 25.0999 10.4707 24.8626C10.2334 24.6253 10.0451 24.3436 9.9167 24.0335Z" fill="#C8DEFF" stroke="black"/>
<path d="M9.00011 40.1662V39.1662H8.00011H6.55566V32.1608C6.81408 32.0135 7.1928 31.819 7.684 31.6225C8.72969 31.2042 10.2842 30.7773 12.2779 30.7773C14.2715 30.7773 15.8261 31.2042 16.8718 31.6225C17.363 31.819 17.7417 32.0135 18.0001 32.1608V39.1662H16.5557H15.5557V40.1662V47.1107H9.00011V40.1662Z" fill="#C8DEFF" stroke="black" stroke-width="2"/>
<path d="M9.22217 23.0556C9.22217 23.4568 9.3012 23.8541 9.45476 24.2249C9.60831 24.5956 9.83338 24.9324 10.1171 25.2162C10.4009 25.4999 10.7377 25.725 11.1084 25.8785C11.4791 26.0321 11.8765 26.1111 12.2777 26.1111C12.679 26.1111 13.0763 26.0321 13.447 25.8785C13.8178 25.725 14.1546 25.4999 14.4383 25.2162C14.7221 24.9324 14.9471 24.5956 15.1007 24.2249C15.2542 23.8541 15.3333 23.4568 15.3333 23.0556C15.3333 22.6543 15.2542 22.257 15.1007 21.8862C14.9471 21.5155 14.7221 21.1787 14.4383 20.895C14.1546 20.6112 13.8178 20.3861 13.447 20.2326C13.0763 20.079 12.679 20 12.2777 20C11.8765 20 11.4791 20.079 11.1084 20.2326C10.7377 20.3861 10.4009 20.6112 10.1171 20.895C9.83338 21.1787 9.60831 21.5155 9.45476 21.8862C9.3012 22.257 9.22217 22.6543 9.22217 23.0556Z" stroke="black" stroke-width="2"/>
<path d="M24.361 24.0335C24.2326 23.7235 24.1665 23.3912 24.1665 23.0556C24.1665 22.72 24.2326 22.3876 24.361 22.0776C24.4895 21.7675 24.6777 21.4858 24.915 21.2485C25.1523 21.0112 25.434 20.823 25.7441 20.6945C26.0541 20.5661 26.3865 20.5 26.7221 20.5C27.0577 20.5 27.39 20.5661 27.7 20.6945C28.0101 20.823 28.2918 21.0112 28.5291 21.2485C28.7664 21.4858 28.9547 21.7675 29.0831 22.0776C29.2115 22.3876 29.2776 22.72 29.2776 23.0556C29.2776 23.3912 29.2115 23.7235 29.0831 24.0335C28.9547 24.3436 28.7664 24.6253 28.5291 24.8626C28.2918 25.0999 28.0101 25.2882 27.7 25.4166C27.39 25.545 27.0577 25.6111 26.7221 25.6111C26.3865 25.6111 26.0541 25.545 25.7441 25.4166C25.434 25.2882 25.1523 25.0999 24.915 24.8626C24.6777 24.6253 24.4895 24.3436 24.361 24.0335Z" fill="#FFD8EF" stroke="black"/>
<path d="M23.4444 40.1662V39.1662H22.4444H21V32.1608C21.2584 32.0135 21.6371 31.819 22.1283 31.6225C23.174 31.2042 24.7286 30.7773 26.7222 30.7773C28.7159 30.7773 30.2704 31.2042 31.3161 31.6225C31.8073 31.819 32.186 32.0135 32.4444 32.1608V39.1662H31H30V40.1662V47.1107H23.4444V40.1662Z" fill="#F6D4E8" stroke="black" stroke-width="2"/>
<path d="M23.6665 23.0556C23.6665 23.4568 23.7455 23.8541 23.8991 24.2249C24.0526 24.5956 24.2777 24.9324 24.5615 25.2162C24.8452 25.4999 25.182 25.725 25.5527 25.8785C25.9235 26.0321 26.3208 26.1111 26.7221 26.1111C27.1233 26.1111 27.5207 26.0321 27.8914 25.8785C28.2621 25.725 28.5989 25.4999 28.8827 25.2162C29.1664 24.9324 29.3915 24.5956 29.545 24.2249C29.6986 23.8541 29.7776 23.4568 29.7776 23.0556C29.7776 22.6543 29.6986 22.257 29.545 21.8862C29.3915 21.5155 29.1664 21.1787 28.8827 20.895C28.5989 20.6112 28.2621 20.3861 27.8914 20.2326C27.5207 20.079 27.1233 20 26.7221 20C26.3208 20 25.9235 20.079 25.5527 20.2326C25.182 20.3861 24.8452 20.6112 24.5615 20.895C24.2777 21.1787 24.0526 21.5155 23.8991 21.8862C23.7455 22.257 23.6665 22.6543 23.6665 23.0556Z" stroke="black" stroke-width="2"/>
<path d="M18.9716 7.84444L20.0015 8.86222L21.0302 7.84444C22.6148 6.27834 25.3207 6.99494 25.9008 9.13423C26.1699 10.1271 25.8827 11.1865 25.1473 11.9133L20.0015 17L14.8545 11.9133C13.2698 10.3472 13.9948 7.67309 16.1596 7.09979C17.1642 6.83379 18.2361 7.11764 18.9716 7.84444Z" fill="#F6D4E8" stroke="black" stroke-width="2"/>
</g>
<defs>
<clipPath id="clip0_731_9281">
<rect width="32" height="32" fill="white" transform="translate(4 4)"/>
</clipPath>
</defs>
</svg>
