<svg width="72" height="72" viewBox="0 0 72 72" fill="none" xmlns="http://www.w3.org/2000/svg">
<circle cx="36" cy="19.5" r="14.5" stroke="white" stroke-width="4"/>
<path fill-rule="evenodd" clip-rule="evenodd" d="M5 57C5 54.1244 7.65555 50.8676 13.4931 48.2141C19.1501 45.6428 27.1056 44 36 44C44.8944 44 52.8499 45.6428 58.5069 48.2141C64.3445 50.8676 67 54.1244 67 57V67H5V57ZM71 57V69V71H69H3H1V69V57C1 51.5913 5.73175 47.3482 11.8379 44.5727C18.1245 41.7151 26.669 40 36 40C45.331 40 53.8755 41.7151 60.1621 44.5727C66.2682 47.3482 71 51.5913 71 57Z" fill="white"/>
</svg>
