<svg width="40" height="40" viewBox="0 0 40 40" fill="none" xmlns="http://www.w3.org/2000/svg">
<path d="M26.8337 32.8344H13.167V13.6078C13.2302 13.5697 13.3075 13.5247 13.3985 13.4744C13.7029 13.306 14.1608 13.0782 14.7617 12.8493C15.963 12.3916 17.736 11.9297 20.0003 11.9297C22.2646 11.9297 24.0376 12.3916 25.239 12.8493C25.8399 13.0782 26.2977 13.306 26.6021 13.4744C26.6932 13.5247 26.7704 13.5697 26.8337 13.6078V32.8344Z" fill="#F4E5CB" stroke="black"/>
<path d="M12.167 32.8346H7.16699V23.168H12.167V32.8346Z" fill="#F4E5CB" stroke="black"/>
<path d="M32.8335 32.8346H27.8335V23.168H32.8335V32.8346Z" fill="#F4E5CB" stroke="black"/>
<path d="M20.0003 21.5026C18.9878 21.5026 18.167 20.6818 18.167 19.6693C18.167 18.6567 18.9878 17.8359 20.0003 17.8359C21.0128 17.8359 21.8337 18.6567 21.8337 19.6693C21.8337 20.6818 21.0128 21.5026 20.0003 21.5026Z" fill="white" stroke="black"/>
<path d="M12.667 13.3344V33.3344H27.3337V13.3344C27.3337 13.3344 24.667 11.4297 20.0003 11.4297C15.3337 11.4297 12.667 13.3344 12.667 13.3344Z" stroke="black" stroke-width="2"/>
<path d="M6.66699 22.668V33.3346H12.667V22.668H6.66699Z" stroke="black" stroke-width="2"/>
<path d="M27.3335 22.668V33.3346H33.3335V22.668H27.3335Z" stroke="black" stroke-width="2"/>
<path d="M20.0005 11.4338V6.66797H24.0005" stroke="black" stroke-width="2"/>
<path d="M20 28V33.3333" stroke="black" stroke-width="2"/>
<path d="M17.667 19.6693C17.667 20.9579 18.7117 22.0026 20.0003 22.0026C21.289 22.0026 22.3337 20.9579 22.3337 19.6693C22.3337 18.3806 21.289 17.3359 20.0003 17.3359C18.7117 17.3359 17.667 18.3806 17.667 19.6693Z" stroke="black" stroke-width="2"/>
</svg>
