<svg width="1200" height="630" viewBox="0 0 1200 630" fill="none" xmlns="http://www.w3.org/2000/svg">
<rect width="1200" height="630" fill="#FA58B6"/>
<rect x="186.454" y="147" width="326.671" height="329.597" rx="72" fill="white"/>
<path d="M349.789 202.893C335.487 202.893 321.325 205.71 308.112 211.183C294.899 216.656 282.893 224.678 272.78 234.791C262.667 244.904 254.645 256.909 249.172 270.123C243.699 283.336 240.882 297.498 240.882 311.8C240.882 326.101 243.699 340.263 249.172 353.476C254.645 366.69 262.667 378.695 272.78 388.808C282.893 398.921 294.899 406.943 308.112 412.417C321.325 417.89 335.487 420.707 349.789 420.707L349.789 311.8V202.893Z" fill="#FA58B6"/>
<path d="M240.882 311.8C240.882 326.102 243.699 340.264 249.172 353.477C254.645 366.69 262.667 378.696 272.78 388.809C282.893 398.922 294.899 406.944 308.112 412.417C321.325 417.89 335.487 420.707 349.789 420.707C364.091 420.707 378.253 417.89 391.466 412.417C404.679 406.944 416.685 398.922 426.798 388.809C436.911 378.696 444.933 366.69 450.406 353.477C455.879 340.264 458.696 326.102 458.696 311.8L349.789 311.8L240.882 311.8Z" fill="#FA58B6"/>
<path fill-rule="evenodd" clip-rule="evenodd" d="M349.789 311.802L240.882 311.802C240.887 326.089 243.704 340.236 249.172 353.436C254.645 366.649 262.667 378.655 272.78 388.768C282.893 398.881 294.899 406.903 308.112 412.376C321.325 417.849 335.487 420.666 349.789 420.666L349.789 311.802Z" fill="#F51F82"/>
<path d="M365.347 249.567C386.042 249.567 412.022 223.588 412.022 202.893C412.022 223.588 438.001 249.567 458.696 249.567C438.001 249.567 412.022 275.546 412.022 296.241C412.022 275.399 386.042 249.567 365.347 249.567Z" fill="#FA58B6"/>
<path d="M709.946 285.765C709.946 299.365 707.013 311.098 701.146 320.965C695.413 330.831 687.346 338.431 676.946 343.765C666.546 348.965 654.479 351.698 640.746 351.965C626.613 351.965 613.946 348.765 602.746 342.365C591.679 335.965 583.013 327.031 576.746 315.565C570.479 304.098 567.346 291.098 567.346 276.565C567.346 262.031 570.479 249.098 576.746 237.765C583.013 226.298 591.679 217.365 602.746 210.965C613.946 204.565 626.613 201.365 640.746 201.365C655.813 201.365 668.679 204.831 679.346 211.765C690.013 218.698 697.946 227.098 703.146 236.965L684.946 246.365C681.213 239.031 675.546 232.831 667.946 227.765C660.479 222.565 651.413 219.965 640.746 219.965C630.479 219.965 621.346 222.365 613.346 227.165C605.479 231.831 599.346 238.431 594.946 246.965C590.679 255.498 588.546 265.365 588.546 276.565C588.546 287.765 590.679 297.698 594.946 306.365C599.346 314.898 605.479 321.565 613.346 326.365C621.346 331.031 630.479 333.365 640.746 333.365C655.013 332.965 666.613 329.231 675.546 322.165C684.479 314.965 689.013 304.431 689.146 290.565H643.146V272.965H710.146L709.946 285.765ZM754.91 207.565V350.365H733.71V207.565H754.91ZM805.376 254.965V350.365H784.176V254.965H805.376ZM782.776 219.365C782.776 215.898 783.909 213.031 786.176 210.765C788.442 208.498 791.309 207.365 794.776 207.365C798.242 207.365 801.109 208.498 803.376 210.765C805.642 213.031 806.776 215.898 806.776 219.365C806.776 222.831 805.642 225.698 803.376 227.965C801.109 230.231 798.242 231.365 794.776 231.365C791.309 231.365 788.442 230.231 786.176 227.965C783.909 225.698 782.776 222.831 782.776 219.365ZM899.919 297.965C899.919 290.365 898.053 284.431 894.319 280.165C890.586 275.765 885.453 273.565 878.919 273.565C872.386 273.698 866.919 276.098 862.519 280.765C858.119 285.298 855.986 291.031 856.119 297.965V350.565H834.919V255.165H856.119V268.165C859.186 264.431 863.053 261.365 867.719 258.965C872.386 256.565 876.986 255.365 881.519 255.365C888.053 255.365 894.319 256.831 900.319 259.765C906.319 262.698 911.253 267.298 915.119 273.565C919.119 279.831 921.119 287.698 921.119 297.165V350.565H899.919V297.965ZM956.099 273.365H938.099V254.965H956.099V221.565H977.299V254.965H999.899V273.365H977.299V350.565H956.099V273.365Z" fill="white"/>
<path d="M612.626 387.472C612.626 397.174 606.368 403.936 595.49 406.96L593.684 403.348C602.042 401.08 606.914 396.67 607.67 391.168H595.658V387.472H612.626ZM619.892 385.246H624.512V406.33H619.892V398.182H612.794V394.402H619.892V385.246ZM600.068 407.842H624.512V422.164H600.068V407.842ZM619.976 411.496H604.604V418.51H619.976V411.496ZM630.183 402.76H663.951V406.414H630.183V402.76ZM647.025 408.934C655.047 408.934 659.919 411.454 659.919 415.78C659.919 420.148 655.047 422.668 647.025 422.668C638.961 422.668 634.089 420.148 634.089 415.78C634.089 411.454 638.961 408.934 647.025 408.934ZM647.025 412.504C641.649 412.504 638.751 413.638 638.751 415.78C638.751 417.964 641.649 419.056 647.025 419.056C652.359 419.056 655.257 417.964 655.257 415.78C655.257 413.638 652.359 412.504 647.025 412.504ZM633.249 387.094H660.927V390.79H650.301C650.973 393.898 655.341 396.712 662.355 397.384L660.717 400.996C653.997 400.324 649.041 397.636 647.067 393.856C645.093 397.636 640.137 400.324 633.375 400.996L631.779 397.384C638.751 396.712 643.161 393.898 643.833 390.79H633.249V387.094ZM670.252 387.598H688.186V391.294H674.83V397.006H688.396V400.702H681.55V404.944C684.658 404.818 687.724 404.608 690.622 404.272L690.958 407.59C683.104 408.724 674.536 408.892 667.648 408.892L667.018 405.196C670.084 405.196 673.486 405.196 676.93 405.112V400.702H670.252V387.598ZM693.142 385.246H697.804V413.302H693.142V385.246ZM672.898 411.37H677.518V418.216H698.854V421.912H672.898V411.37ZM739.489 385.288H744.109V407.464H739.489V385.288ZM731.635 408.136C739.447 408.136 744.361 410.824 744.361 415.36C744.361 419.896 739.447 422.584 731.635 422.584C723.823 422.584 718.951 419.896 718.951 415.36C718.951 410.824 723.823 408.136 731.635 408.136ZM731.635 411.748C726.469 411.748 723.571 413.008 723.571 415.36C723.571 417.67 726.469 418.972 731.635 418.972C736.801 418.972 739.783 417.67 739.783 415.36C739.783 413.008 736.801 411.748 731.635 411.748ZM722.395 386.926H727.057V390.496C727.057 395.41 730.165 399.988 736.003 401.836L733.777 405.49C729.493 404.062 726.469 401.248 724.789 397.678C723.151 401.71 720.001 404.902 715.591 406.456L713.239 402.802C719.287 400.702 722.395 395.662 722.395 390.496V386.926ZM754.232 386.758H779.684V389.32C779.684 391.756 779.684 394.822 778.928 398.728H783.842V402.424H749.99V398.728H774.35C775.064 395.326 775.19 392.722 775.19 390.496H754.232V386.758ZM753.812 405.406H779.726V415.528H758.516V418.72H780.65V422.374H753.938V412.084H775.106V408.976H753.812V405.406ZM798.31 388.732H815.95V413.554H798.31V388.732ZM811.456 392.386H802.846V409.9H811.456V392.386ZM822.586 385.204H827.206V422.71H822.586V385.204ZM835.145 387.934H853.037V391.588H839.723V395.116H851.987V398.728H839.723V402.424C846.653 402.424 850.937 402.256 855.809 401.458L856.229 405.07C850.937 405.952 846.275 406.078 838.295 406.078H835.145V387.934ZM859.337 385.288H863.957V408.094H859.337V385.288ZM851.441 408.64C859.295 408.64 864.125 411.244 864.125 415.612C864.125 420.106 859.295 422.626 851.441 422.626C843.587 422.626 838.715 420.106 838.715 415.612C838.715 411.244 843.587 408.64 851.441 408.64ZM851.441 412.168C846.233 412.168 843.377 413.386 843.377 415.612C843.377 417.88 846.233 419.098 851.441 419.098C856.607 419.098 859.547 417.88 859.547 415.612C859.547 413.386 856.607 412.168 851.441 412.168ZM898.208 397.342H905.978V385.204H910.556V422.71H905.978V401.08H898.208V397.342ZM888.506 388.27H893.126V394.192C893.126 401.122 896.36 407.968 902.282 410.656L899.552 414.352C895.394 412.294 892.454 408.346 890.816 403.516C889.178 408.64 886.154 412.84 881.954 414.982L879.098 411.286C885.104 408.43 888.506 401.206 888.506 394.192V388.27ZM942.393 385.204H947.013V422.71H942.393V385.204ZM918.117 388.312H922.695V397.678H931.641V388.312H936.177V413.848H918.117V388.312ZM922.695 401.29V410.152H931.641V401.29H922.695ZM967.216 387.556H972.088V390.328C972.088 396.124 977.632 401.92 985.402 403.264L983.386 407.086C977.128 405.826 972.046 402.046 969.652 397.048C967.216 402.004 962.134 405.826 955.918 407.086L953.944 403.264C961.588 401.878 967.216 396.082 967.216 390.328V387.556ZM952.894 414.1H986.746V417.88H952.894V414.1Z" fill="white"/>
</svg>
